<svg width="15" height="15" viewBox="0 0 18 18" fill="none" xmlns="http://www.w3.org/2000/svg">
<path d="M7.43326 0H1.82696C1.57915 0 1.34148 0.105357 1.16625 0.292893C0.991022 0.48043 0.892578 0.734784 0.892578 1V7C0.892578 7.26522 0.991022 7.51957 1.16625 7.70711C1.34148 7.89464 1.57915 8 1.82696 8H7.43326C7.68107 8 7.91874 7.89464 8.09397 7.70711C8.2692 7.51957 8.36764 7.26522 8.36764 7V1C8.36764 0.734784 8.2692 0.48043 8.09397 0.292893C7.91874 0.105357 7.68107 0 7.43326 0ZM6.49888 6H2.76134V2H6.49888V6ZM16.7771 0H11.1708C10.923 0 10.6853 0.105357 10.5101 0.292893C10.3349 0.48043 10.2364 0.734784 10.2364 1V7C10.2364 7.26522 10.3349 7.51957 10.5101 7.70711C10.6853 7.89464 10.923 8 11.1708 8H16.7771C17.0249 8 17.2626 7.89464 17.4378 7.70711C17.613 7.51957 17.7115 7.26522 17.7115 7V1C17.7115 0.734784 17.613 0.48043 17.4378 0.292893C17.2626 0.105357 17.0249 0 16.7771 0ZM15.8427 6H12.1052V2H15.8427V6ZM7.43326 10H1.82696C1.57915 10 1.34148 10.1054 1.16625 10.2929C0.991022 10.4804 0.892578 10.7348 0.892578 11V17C0.892578 17.2652 0.991022 17.5196 1.16625 17.7071C1.34148 17.8946 1.57915 18 1.82696 18H7.43326C7.68107 18 7.91874 17.8946 8.09397 17.7071C8.2692 17.5196 8.36764 17.2652 8.36764 17V11C8.36764 10.7348 8.2692 10.4804 8.09397 10.2929C7.91874 10.1054 7.68107 10 7.43326 10ZM6.49888 16H2.76134V12H6.49888V16ZM13.9739 10C11.9127 10 10.2364 11.794 10.2364 14C10.2364 16.206 11.9127 18 13.9739 18C16.0352 18 17.7115 16.206 17.7115 14C17.7115 11.794 16.0352 10 13.9739 10ZM13.9739 16C12.9433 16 12.1052 15.103 12.1052 14C12.1052 12.897 12.9433 12 13.9739 12C15.0046 12 15.8427 12.897 15.8427 14C15.8427 15.103 15.0046 16 13.9739 16Z" fill="#2E6FBA"/>
</svg>
