<svg width="151" height="99" viewBox="0 0 151 99" fill="none" xmlns="http://www.w3.org/2000/svg">
<path d="M98.5507 43.2276C98.3766 44.1389 98.168 45.0408 97.9246 45.9335C97.8982 46.0372 97.8687 46.1393 97.8391 46.243H94.4541C94.1658 46.2433 93.8894 46.3575 93.6855 46.5605C93.4816 46.7635 93.367 47.0388 93.3667 47.326V56.9367C93.2641 57.127 93.16 57.3158 93.056 57.5045C92.5184 58.4792 91.9592 59.4431 91.3875 60.3945C82.0655 75.859 69.0639 88.7999 53.5304 98.0748L54.4502 96.0079C54.113 95.9846 53.7744 95.9614 53.4373 95.9382C46.097 95.4385 38.7319 94.8847 31.5641 93.2416C24.0654 91.5227 16.7298 88.5414 10.853 83.5984C4.97451 78.6537 0.665166 71.5927 0.0670565 63.9529C-0.132381 61.3274 0.134251 58.6873 0.854725 56.1539C2.23261 51.2773 5.24334 46.8897 9.5869 44.2936C16.4098 40.2169 25.3098 41.0477 32.5024 44.439C39.6935 47.8288 45.5471 53.4402 51.2624 58.9542C45.492 49.0994 37.4577 40.7475 27.8186 34.5838C24.6247 32.5478 21.235 30.7346 18.5195 28.0967C15.8055 25.4604 13.803 21.7643 14.2831 18.0187C14.8283 13.7703 18.3222 10.5461 21.8222 8.05986C23.2203 7.06661 24.6635 6.12441 26.1518 5.25801C30.3508 2.80736 34.8933 0.958547 39.6904 0.27317C46.1887 -0.656654 53.2074 0.754327 58.1894 5.01202C63.8022 9.80966 66.1044 17.5468 65.8854 24.9483C69.3434 19.9418 74.6766 16.1096 80.6995 15.9471C86.9523 15.78 92.896 19.7144 96.0278 25.1077C99.1581 30.4994 99.7204 37.1087 98.5507 43.2276Z" fill="#E6E6E6"/>
<path d="M58.9881 64.0202C62.6504 63.699 66.0335 63.3237 69.5823 62.3236C73.0223 61.3542 76.3324 59.7314 78.7812 57.0816C81.4152 54.2316 82.837 50.5302 83.8401 46.8457C84.3994 44.7914 84.859 42.7084 85.2926 40.6247C85.7631 38.3638 86.1811 36.093 86.5467 33.8121C87.2745 29.2721 87.794 24.7053 88.1054 20.1117C88.143 19.5542 88.1774 18.9964 88.2088 18.4384C88.2282 18.0942 87.6907 18.0953 87.6713 18.4384C87.4155 22.9663 86.9554 27.4766 86.291 31.9692C85.6353 36.3831 84.7964 40.778 83.732 45.1128C82.8303 48.7851 81.6629 52.5148 79.3503 55.5718C77.1817 58.4385 74.0495 60.3118 70.6675 61.4319C67.2261 62.5717 63.5975 63.0267 60.0013 63.3651C59.5601 63.4066 59.4295 63.4461 58.9881 63.4849C58.6462 63.5148 58.643 64.0504 58.9881 64.0202L58.9881 64.0202Z" fill="white"/>
<path d="M1.16411 56.5485C5.78476 56.8037 10.3584 57.6064 14.7884 58.9394C19.2202 60.2698 23.479 62.116 27.4767 64.4398C31.3394 66.6869 34.9254 69.3758 38.1616 72.4517C41.3024 75.4387 44.1016 78.7626 46.5081 82.3629C48.9255 85.9722 50.9289 89.8401 52.4807 93.8941C52.6699 94.3903 52.8522 94.889 53.0275 95.3903C53.1408 95.7134 53.6602 95.5744 53.5458 95.2479C52.094 91.1083 50.1801 87.1441 47.8401 83.4299C45.5005 79.7153 42.7548 76.2704 39.6531 73.1583C36.5018 69.9979 32.9946 67.2105 29.2012 64.8514C21.2362 59.9103 12.208 56.9211 2.85795 56.1294C2.29394 56.0823 1.72932 56.0436 1.16411 56.0132C0.818463 55.9943 0.819524 56.5297 1.16411 56.5485L1.16411 56.5485Z" fill="white"/>
<path d="M26.2957 5.88533C29.25 6.82107 32.0504 8.1839 34.607 9.93017C37.2195 11.7267 39.6022 13.834 41.7022 16.2053C43.9151 18.6999 45.8826 21.4002 47.5774 24.2691C49.3751 27.2983 50.9369 30.4604 52.2488 33.7276C53.5997 37.0818 54.736 40.5179 55.6507 44.0152C56.5805 47.554 57.3068 51.1427 57.826 54.7639C58.3426 58.3466 58.6552 61.9556 58.7623 65.5736C58.8703 69.0331 58.7677 72.496 58.4548 75.9431C58.1687 79.1591 57.6462 82.3499 56.8915 85.4898C56.2213 88.3257 55.2768 91.0903 54.0712 93.7448C53.7919 94.3472 53.4956 94.9413 53.1822 95.5272C53.0197 95.8311 53.4835 96.1018 53.6464 95.7973C54.9787 93.2619 56.0425 90.5953 56.8208 87.8406C57.6939 84.774 58.3268 81.6446 58.7138 78.4805C59.1427 75.0477 59.3517 71.5912 59.3392 68.1319C59.3315 64.4977 59.1143 60.8669 58.6887 57.2575C58.2628 53.603 57.6306 49.9753 56.7949 46.3917C55.9613 42.8022 54.9039 39.2679 53.6288 35.8094C52.3998 32.4614 50.9283 29.2067 49.2259 26.071C47.6045 23.0787 45.715 20.2385 43.5803 17.5849C41.5531 15.0582 39.2387 12.7741 36.6834 10.7781C34.2194 8.85921 31.4966 7.29508 28.5951 6.13167C27.8861 5.85061 27.1672 5.59643 26.4385 5.36913C26.1078 5.2655 25.9663 5.78213 26.2956 5.88533H26.2957Z" fill="white"/>
<path d="M58.1784 98.9995C79.4131 98.9995 96.6273 98.3069 96.6273 97.4524C96.6273 96.5979 79.4131 95.9053 58.1784 95.9053C36.9437 95.9053 19.7295 96.5979 19.7295 97.4524C19.7295 98.3069 36.9437 98.9995 58.1784 98.9995Z" fill="#E6E6E6"/>
<path d="M92.1488 48.995C92.1297 49.0785 92.1173 49.1634 92.1116 49.2488L85.4382 53.0829L83.8161 52.1529L82.0869 54.4074L85.557 56.8705L93.1703 50.8889C93.4808 51.0034 93.819 51.0209 94.1398 50.9393C94.4605 50.8577 94.7488 50.6808 94.9661 50.432C95.1835 50.1833 95.3197 49.8745 95.3565 49.5469C95.3934 49.2192 95.3292 48.8881 95.1726 48.5976C95.0159 48.3071 94.7741 48.071 94.4794 47.9207C94.1847 47.7704 93.8511 47.713 93.5228 47.7562C93.1946 47.7993 92.8873 47.9409 92.6418 48.1622C92.3964 48.3835 92.2244 48.674 92.1488 48.995Z" fill="#FFB8B8"/>
<path d="M76.9506 51.3475L82.2051 55.0772L84.5552 52.1427L79.4473 48.061C79.2276 47.8854 78.9741 47.7563 78.7025 47.6817C78.4309 47.6071 78.1469 47.5884 77.8678 47.6269C77.5887 47.6654 77.3205 47.7603 77.0795 47.9057C76.8385 48.0511 76.6299 48.2439 76.4663 48.4724C76.1477 48.9176 76.0197 49.4706 76.1106 50.0098C76.2014 50.549 76.5035 51.0302 76.9506 51.3475Z" fill="#1C4496"/>
<path d="M66.1045 93.9043L67.9469 94.385L70.6857 87.5368L67.9667 86.8271L66.1045 93.9043Z" fill="#FFB8B8"/>
<path d="M71.0508 97.0156L65.2605 95.5046L65.8467 93.2767L69.3998 94.2039C69.9932 94.3587 70.5004 94.7419 70.81 95.2692C71.1196 95.7965 71.2062 96.4247 71.0508 97.0156Z" fill="#2F2E41"/>
<path d="M82.4812 95.2099L84.3561 94.8764L83.9565 87.5156L81.1895 88.0079L82.4812 95.2099Z" fill="#FFB8B8"/>
<path d="M88.2832 95.9678L82.3907 97.016L81.9841 94.7487L85.5999 94.1055C85.8989 94.0523 86.2054 94.0583 86.5021 94.1231C86.7987 94.1879 87.0797 94.3103 87.3288 94.4832C87.578 94.6561 87.7905 94.8762 87.9543 95.131C88.118 95.3857 88.2298 95.67 88.2832 95.9678Z" fill="#2F2E41"/>
<path d="M78.7902 41.0781C79.2522 41.1901 79.628 41.6589 79.8538 42.2021C80.062 42.7726 80.2029 43.3652 80.2738 43.968C80.4512 45.0907 80.6215 46.3062 80.2547 47.346C79.8247 48.5647 78.6791 49.203 77.6854 48.9031C76.6916 48.6031 75.9013 47.4771 75.6313 46.181C75.3854 44.8714 75.5438 43.5184 76.0856 42.3002C76.3679 41.6601 76.757 41.0696 77.2741 40.7808C77.5277 40.6281 77.83 40.5767 78.1202 40.6369C78.4104 40.6971 78.6669 40.8645 78.8382 41.1054" fill="#2F2E41"/>
<path d="M81.4036 61.4053L84.973 93.2442L82.025 94.3591L76.5878 73.0087L69.0179 92.5301L65.791 92.7086C65.791 92.7086 70.2185 62.3336 73.4997 61.6432L81.4036 61.4053Z" fill="#2F2E41"/>
<path d="M78.4054 45.1408C80.5126 45.1408 82.2209 43.4395 82.2209 41.3409C82.2209 39.2423 80.5126 37.541 78.4054 37.541C76.2981 37.541 74.5898 39.2423 74.5898 41.3409C74.5898 43.4395 76.2981 45.1408 78.4054 45.1408Z" fill="#FFB8B8"/>
<path d="M80.0431 46.7348L75.9199 46.1992C75.9199 46.1992 73.2308 49.4129 73.4101 54.9475C73.5894 60.4822 72.9619 62.1783 72.9619 62.1783L81.559 62.333C80.3162 60.6311 85.5144 50.8568 80.0431 46.7348Z" fill="#1C4496"/>
<path d="M82.2583 63.1069C82.1724 63.1075 82.0866 63.1149 82.0018 63.1289L76.7269 57.5367L77.2647 55.7513L74.6653 54.5908L73.0518 58.5186L80.6409 64.5307C80.6001 64.8579 80.6603 65.1897 80.8135 65.4821C80.9667 65.7744 81.2056 66.0133 81.4985 66.1671C81.7913 66.3209 82.1243 66.3823 82.453 66.343C82.7818 66.3038 83.0907 66.1658 83.3388 65.9474C83.5869 65.7291 83.7623 65.4406 83.8418 65.1205C83.9213 64.8005 83.901 64.4638 83.7837 64.1555C83.6665 63.8471 83.4577 63.5816 83.1852 63.3943C82.9127 63.207 82.5894 63.1068 82.2583 63.1069Z" fill="#FFB8B8"/>
<path d="M76.4812 48.9108L74.0381 54.8585L77.4442 56.4653L80.2651 50.5792C80.3864 50.326 80.4546 50.0507 80.4654 49.7703C80.4762 49.49 80.4294 49.2103 80.3279 48.9486C80.2264 48.6868 80.0723 48.4485 79.875 48.2481C79.6778 48.0478 79.4415 47.8896 79.1808 47.7834C78.9292 47.6809 78.6598 47.6287 78.388 47.6299C78.1161 47.6311 77.8472 47.6856 77.5965 47.7903C77.3459 47.895 77.1184 48.0478 76.927 48.2401C76.7356 48.4323 76.5842 48.6602 76.4812 48.9108Z" fill="#1C4496"/>
<path d="M77.4072 44.7957C78.005 44.4522 78.0688 43.6236 77.9875 42.941C77.9063 42.2585 77.7706 41.4975 78.1734 40.9394C78.6543 40.2733 79.6203 40.26 80.4438 40.2383C81.2673 40.2165 82.2701 39.9764 82.4834 39.184C82.6244 38.6604 82.3228 38.0986 81.8899 37.7699C81.4571 37.4412 80.9155 37.2959 80.3892 37.1578C79.2118 36.8489 77.996 36.5374 76.7904 36.7072C75.5962 36.8754 74.5165 37.505 73.785 38.4599C73.0534 39.4148 72.7288 40.6182 72.8814 41.8096C73.0765 43.3337 73.3595 43.9992 73.1737 44.6712C72.8277 45.9229 71.3358 46.727 71.3061 48.0249C71.2829 49.0401 72.1833 49.8233 73.0618 50.3387C73.7586 50.7476 74.5107 51.0946 75.3137 51.1903C76.1168 51.286 76.9814 51.1028 77.5796 50.5607C78.3512 49.8615 78.5421 48.6935 78.3208 47.6783C78.0996 46.663 77.532 45.7614 76.9706 44.8859" fill="#2F2E41"/>
<path d="M149.602 45.9336H94.4528C94.0822 45.9341 93.7269 46.081 93.4648 46.342C93.2027 46.603 93.0552 46.9569 93.0547 47.326V82.6005C93.0552 82.9696 93.2027 83.3235 93.4648 83.5845C93.7269 83.8455 94.0822 83.9924 94.4528 83.9929H149.602C149.972 83.9924 150.328 83.8455 150.59 83.5845C150.852 83.3235 150.999 82.9696 151 82.6005V47.326C150.999 46.9569 150.852 46.603 150.59 46.342C150.328 46.081 149.972 45.9341 149.602 45.9336ZM150.689 82.6005C150.689 82.8876 150.574 83.1629 150.37 83.3659C150.167 83.569 149.89 83.6832 149.602 83.6835H94.4528C94.1645 83.6832 93.8881 83.569 93.6842 83.3659C93.4804 83.1629 93.3657 82.8876 93.3654 82.6005V47.326C93.3657 47.0389 93.4804 46.7636 93.6842 46.5606C93.8881 46.3575 94.1645 46.2433 94.4528 46.243H149.602C149.89 46.2433 150.167 46.3575 150.37 46.5606C150.574 46.7636 150.689 47.0389 150.689 47.326V82.6005Z" fill="#3F3D56"/>
<path d="M106.224 63.4923H97.5246C97.1745 63.4918 96.8389 63.3532 96.5913 63.1066C96.3438 62.8601 96.2045 62.5258 96.2041 62.1772V53.5133C96.2045 53.1647 96.3438 52.8304 96.5913 52.5839C96.8389 52.3373 97.1745 52.1987 97.5246 52.1982H106.224C106.574 52.1987 106.91 52.3373 107.157 52.5839C107.405 52.8304 107.544 53.1647 107.545 53.5133V62.1772C107.544 62.5258 107.405 62.8601 107.157 63.1066C106.91 63.3532 106.574 63.4918 106.224 63.4923Z" fill="#1C4496"/>
<path d="M146.729 72.6997H97.3281C97.0603 72.6997 96.8035 72.5938 96.6141 72.4052C96.4247 72.2166 96.3184 71.9608 96.3184 71.6941C96.3184 71.4274 96.4247 71.1716 96.6141 70.983C96.8035 70.7944 97.0603 70.6885 97.3281 70.6885H146.729C146.997 70.6885 147.254 70.7944 147.443 70.983C147.633 71.1716 147.739 71.4274 147.739 71.6941C147.739 71.9608 147.633 72.2166 147.443 72.4052C147.254 72.5938 146.997 72.6997 146.729 72.6997Z" fill="#CCCCCC"/>
<path d="M146.762 67.8257H97.3613C97.0935 67.8257 96.8367 67.7198 96.6473 67.5312C96.4579 67.3426 96.3516 67.0868 96.3516 66.8201C96.3516 66.5534 96.4579 66.2976 96.6473 66.109C96.8367 65.9204 97.0935 65.8145 97.3613 65.8145H146.762C147.03 65.8145 147.287 65.9204 147.476 66.109C147.666 66.2976 147.772 66.5534 147.772 66.8201C147.772 67.0868 147.666 67.3426 147.476 67.5312C147.287 67.7198 147.03 67.8257 146.762 67.8257Z" fill="#CCCCCC"/>
<path d="M122.373 61.1714H115.071C114.803 61.1714 114.547 61.0655 114.357 60.8769C114.168 60.6883 114.062 60.4325 114.062 60.1658C114.062 59.8991 114.168 59.6433 114.357 59.4547C114.547 59.2661 114.803 59.1602 115.071 59.1602H122.373C122.64 59.1602 122.897 59.2661 123.087 59.4547C123.276 59.6433 123.382 59.8991 123.382 60.1658C123.382 60.4325 123.276 60.6883 123.087 60.8769C122.897 61.0655 122.64 61.1714 122.373 61.1714Z" fill="#CCCCCC"/>
<path d="M146.762 56.2232H115.071C114.803 56.2232 114.547 56.1172 114.357 55.9286C114.168 55.74 114.062 55.4843 114.062 55.2175C114.062 54.9508 114.168 54.6951 114.357 54.5065C114.547 54.3179 114.803 54.2119 115.071 54.2119H146.762C147.03 54.2119 147.287 54.3179 147.476 54.5065C147.666 54.6951 147.772 54.9508 147.772 55.2175C147.772 55.4843 147.666 55.74 147.476 55.9286C147.287 56.1172 147.03 56.2232 146.762 56.2232Z" fill="#CCCCCC"/>
<path d="M121.13 77.6509H97.3281C97.0603 77.6509 96.8035 77.545 96.6141 77.3564C96.4247 77.1678 96.3184 76.912 96.3184 76.6453C96.3184 76.3786 96.4247 76.1228 96.6141 75.9342C96.8035 75.7456 97.0603 75.6396 97.3281 75.6396H121.13C121.398 75.6396 121.654 75.7456 121.844 75.9342C122.033 76.1228 122.14 76.3786 122.14 76.6453C122.14 76.912 122.033 77.1678 121.844 77.3564C121.654 77.545 121.398 77.6509 121.13 77.6509Z" fill="#CCCCCC"/>
</svg>
