<?xml version="1.0" encoding="UTF-8" standalone="no"?>
<!DOCTYPE svg PUBLIC "-//W3C//DTD SVG 1.1//EN" "http://www.w3.org/Graphics/SVG/1.1/DTD/svg11.dtd">
<svg width="100%" height="100%" viewBox="0 0 696 118" version="1.1" xmlns="http://www.w3.org/2000/svg" xmlnsXlink="http://www.w3.org/1999/xlink" xmlSpace="preserve" xmlnsSerif="http://www.serif.com/" style="fill-rule:evenodd;clip-rule:evenodd;stroke-linejoin:round;stroke-miterlimit:2;">
    <g id="Artboard1" transform="matrix(1,0,0,1,-9.119,-4.75157)">
        <rect x="9.119" y="4.752" width="695.324" height="117.787" style="fill:none;"/>
        <clipPath id="_clip1">
            <rect x="9.119" y="4.752" width="695.324" height="117.787"/>
        </clipPath>
        <g clip-path="url(#_clip1)">
            <g transform="matrix(0.1,0,0,-0.1,0.118998,194.182)">
                <g transform="matrix(1.30265,0,0,1.30265,-2324.76,139.417)">
                    <path d="M2053.87,1283.77C2010.79,1268.82 1964.19,1223.1 1951.01,1184.41C1937.82,1143.97 1944.85,1070.12 1965.07,1038.46C1974.74,1024.4 2014.31,991.865 2052.99,967.246C2147.07,905.7 2156.74,894.271 2161.14,832.725C2164.66,787.005 2162.02,779.092 2140.92,753.594C2111.02,718.425 2075.86,699.082 2039.81,699.082C2002.88,699.082 1981.78,710.512 1933.42,757.99C1865.72,823.053 1827.91,790.522 1881.55,712.271C1914.96,663.913 1964.19,636.657 2030.13,631.382C2071.46,627.865 2087.28,631.382 2127.73,652.483C2212.14,695.565 2258.73,793.159 2233.24,872.29C2215.65,925.923 2184.88,959.333 2100.47,1016.48C2050.36,1049.89 2017.83,1078.03 2012.55,1092.98C1998.48,1129.9 2010.79,1169.47 2045.08,1199.36C2090.8,1239.81 2132.13,1236.29 2191.91,1186.17C2220.93,1161.56 2227.96,1160.68 2244.67,1178.26C2282.47,1216.07 2185.76,1297.84 2105.75,1296.96C2096.08,1296.08 2073.22,1290.8 2053.87,1283.77Z" style="fill:rgb(35,35,35);fill-rule:nonzero;"/>
                </g>
                <g transform="matrix(1.30265,0,0,1.30265,-2324.76,139.417)">
                    <path d="M5834.55,1286.41C5826.64,1282.01 5806.41,1249.48 5789.71,1215.19C5676.29,969.884 5605.95,824.812 5596.28,814.261C5579.57,797.556 5583.97,784.367 5529.46,1057.81L5483.74,1288.16L5458.24,1288.16C5440.66,1288.16 5430.99,1282.89 5425.71,1268.82C5413.4,1234.53 5342.18,668.309 5348.34,652.483C5356.25,632.261 5404.61,632.261 5410.76,653.362C5413.4,661.275 5423.07,728.097 5433.62,800.193C5454.73,955.816 5458.24,971.643 5467.91,971.643C5471.43,971.643 5488.14,907.459 5503.96,829.208C5541.77,642.812 5543.53,637.536 5574.3,637.536C5593.64,637.536 5601.56,643.691 5613.86,670.947C5710.58,874.048 5761.57,974.28 5765.09,963.729C5767.73,956.696 5763.33,887.237 5754.54,808.986C5745.75,730.734 5741.35,659.517 5743.99,651.604C5747.51,642.812 5759.82,637.536 5775.64,637.536C5808.17,637.536 5804.66,626.106 5833.67,844.155C5845.1,936.473 5860.93,1056.93 5868.84,1112.32C5886.43,1246.84 5885.55,1276.73 5866.2,1287.29C5856.53,1292.56 5845.1,1292.56 5834.55,1286.41Z" style="fill:rgb(35,35,35);fill-rule:nonzero;"/>
                </g>
                <g transform="matrix(1.30265,0,0,1.30265,-2324.76,139.417)">
                    <path d="M2414.36,1276.73C2397.65,1264.42 2393.26,1239.81 2351.93,912.734C2316.76,640.174 2317.64,621.71 2363.36,633.14C2393.26,640.174 2390.62,635.778 2400.29,692.928C2409.08,749.198 2457.44,872.29 2479.42,896.029C2506.68,925.043 2514.59,905.7 2513.71,809.865C2512.83,707.874 2525.14,665.671 2562.07,641.932C2587.57,625.227 2631.53,626.986 2679.88,647.208C2702.74,656.879 2711.54,656.879 2725.6,648.087C2735.28,642.812 2760.77,637.536 2783.63,637.536C2816.16,637.536 2828.47,641.932 2848.7,662.155C2872.43,685.894 2901.45,760.628 2901.45,799.314C2902.33,811.623 2915.52,825.691 2942.77,842.396C2964.75,855.585 2984.1,865.256 2984.98,864.377C2986.73,862.618 2973.55,751.836 2955.96,617.314C2927.83,395.749 2926.07,372.01 2938.38,359.7C2970.03,328.048 3006.96,372.01 3006.96,443.227C3006.96,460.812 3014.87,532.029 3023.66,602.367C3042.13,737.768 3078.17,854.705 3116.86,898.667C3147.63,935.594 3156.43,918.889 3156.43,823.932C3156.43,683.256 3180.16,637.536 3252.26,637.536C3333.15,637.536 3374.47,690.29 3412.28,842.396C3423.71,887.237 3436.02,918.889 3442.17,918.889C3457.12,918.889 3499.32,874.928 3508.99,850.309C3522.18,816.019 3517.79,761.507 3498.44,716.667C3475.59,664.792 3480.86,643.691 3514.27,648.087C3532.73,649.845 3544.16,660.396 3558.23,686.773C3603.95,769.42 3589.01,875.807 3522.18,941.749C3482.62,981.314 3422.83,1005.05 3396.45,990.986C3387.66,985.71 3371.84,943.507 3354.25,882.841C3321.72,762.386 3301.5,718.425 3273.36,705.237C3256.66,698.203 3249.62,699.082 3237.31,711.391C3225.01,723.7 3221.49,746.56 3219.73,842.396C3217.09,945.266 3214.45,961.092 3197.75,978.676C3175.77,1002.42 3143.24,1003.3 3108.07,981.314C3081.69,965.488 3081.69,965.488 3063.23,987.469C3048.28,1005.93 3043.01,1007.69 3026.3,998.899C3014.87,992.744 3005.2,976.039 3000.8,953.179C2993.77,918.889 2991.13,916.251 2962.99,914.493C2946.29,913.614 2924.31,909.217 2913.76,906.58C2898.81,901.304 2893.54,904.821 2883.87,927.681C2867.16,968.126 2835.51,989.227 2790.67,989.227C2712.41,989.227 2660.54,903.942 2664.94,783.488C2667.58,721.063 2657.02,699.082 2624.49,699.082C2587.57,699.082 2580.53,720.184 2577.89,845.913C2574.38,953.179 2572.62,963.729 2555.91,976.039C2531.3,993.623 2488.21,992.744 2463.59,975.159C2452.16,967.246 2440.73,962.85 2438.1,965.488C2435.46,968.126 2440.73,1032.31 2448.65,1107.04C2456.56,1182.66 2460.96,1251.24 2457.44,1260.91C2450.41,1282.89 2431.94,1289.92 2414.36,1276.73ZM2766.93,830.966C2779.24,821.295 2798.58,813.382 2810.01,813.382C2837.27,813.382 2842.54,801.952 2831.11,762.386C2805.61,664.792 2725.6,694.686 2725.6,802.831C2725.6,852.947 2733.52,857.343 2766.93,830.966Z" style="fill:rgb(35,35,35);fill-rule:nonzero;"/>
                </g>
                <g transform="matrix(1.30265,0,0,1.30265,-2324.76,139.417)">
                    <path d="M4914.88,1275.86C4909.6,1268.82 4896.41,1203.76 4885.86,1132.54L4866.52,1002.42L4819.04,996.261C4782.99,991.865 4766.29,984.831 4743.43,962.85C4702.99,924.164 4675.73,856.464 4670.45,784.367C4666.94,734.251 4662.54,721.942 4645.84,710.512C4634.41,703.478 4618.58,699.082 4609.79,700.841C4581.65,706.116 4571.98,742.164 4571.98,853.826C4571.98,943.507 4569.34,961.971 4557.03,974.28C4530.66,998.019 4499.88,999.778 4462.96,981.314C4426.91,962.85 4413.72,963.729 4413.72,985.71C4413.72,1000.66 4374.15,1002.42 4364.48,988.348C4360.09,981.314 4326.68,769.42 4325.8,743.043C4325.8,740.406 4308.21,728.976 4286.23,717.546C4265.13,706.116 4249.3,693.807 4251.94,689.411C4254.58,685.014 4248.43,681.498 4237.87,681.498C4227.32,681.498 4221.17,685.014 4223.81,689.411C4226.44,693.807 4222.93,701.72 4215.89,707.874C4200.95,720.184 4199.19,795.797 4211.5,901.304C4215.01,938.232 4215.01,973.401 4211.5,981.314C4200.95,1000.66 4104.23,1002.42 4065.55,983.952C4008.4,956.696 3963.56,862.618 3962.68,769.42C3960.92,645.449 4020.7,597.971 4112.15,649.845L4149.07,670.947L4177.21,649.845C4210.62,625.227 4244.91,623.469 4287.99,642.812C4309.97,654.242 4320.52,655.121 4328.44,647.208C4340.74,634.899 4367.12,634.899 4374.15,647.208C4377.67,652.483 4386.46,680.618 4392.62,709.633C4399.65,739.527 4420.75,796.676 4440.1,837.121C4466.47,894.271 4478.78,910.976 4490.21,908.338C4504.28,905.7 4506.92,892.512 4510.44,804.589C4516.59,669.188 4534.17,638.415 4604.51,637.536C4624.73,637.536 4651.11,641.932 4663.42,647.208C4681.01,655.121 4691.56,654.242 4716.17,642.812C4751.34,626.106 4780.36,630.502 4825.2,656.879C4854.21,674.464 4854.21,674.464 4873.56,656.879C4884.11,647.208 4901.69,636.657 4912.24,634.019C4963.24,618.193 5046.76,662.155 5046.76,703.478C5046.76,734.251 5033.57,737.768 4990.49,716.667C4970.27,706.116 4945.65,699.082 4935.98,700.841C4901.69,706.995 4901.69,740.406 4935.1,986.589C4961.48,1178.26 4965.87,1228.38 4958.84,1255.63C4949.17,1289.92 4933.34,1296.96 4914.88,1275.86ZM4145.56,928.56C4148.19,918.889 4142.92,873.169 4133.25,825.691C4118.3,753.594 4111.27,736.889 4091.04,720.184C4047.96,684.135 4026.86,698.203 4026.86,762.386C4026.86,826.57 4056.75,896.908 4095.44,923.285C4134.13,949.662 4138.52,950.541 4145.56,928.56ZM4850.7,930.319C4857.73,912.734 4838.39,793.159 4822.56,754.473C4816.41,739.527 4798.82,720.184 4783.87,713.15C4760.14,699.961 4756.62,700.841 4742.55,714.029C4709.14,747.44 4753.98,897.787 4806.73,929.44C4838.39,947.903 4843.66,947.903 4850.7,930.319Z" style="fill:rgb(35,35,35);fill-rule:nonzero;"/>
                </g>
                <g transform="matrix(1.30265,0,0,1.30265,-2324.76,139.417)">
                    <path d="M6429.79,1275.86C6353.3,1240.69 6299.66,1054.29 6320.76,891.633C6336.59,765.903 6377.91,680.618 6435.94,650.725C6492.21,621.71 6590.69,641.932 6610.91,687.652L6621.46,710.512L6649.59,683.256C6721.69,613.797 6810.49,623.469 6889.62,709.633C6932.7,756.232 6956.44,795.797 6976.67,852.947C6998.65,913.614 7007.44,922.406 7032.06,904.821C7060.19,885.478 7086.57,828.329 7086.57,787.005C7086.57,767.662 7078.66,736.01 7068.99,716.667C7038.21,656 7053.16,621.71 7099.76,646.329C7152.51,674.464 7170.1,807.227 7131.41,886.357C7106.79,936.473 7056.68,976.918 7006.56,984.831C6965.24,991.865 6950.29,982.193 6942.38,945.266C6932.7,895.15 6877.31,788.763 6840.39,748.319C6759.5,660.396 6675.97,697.324 6643.44,837.121C6631.13,890.754 6631.13,891.633 6653.11,911.855C6734,986.589 6797.3,1101.77 6803.46,1184.41C6806.98,1238.05 6806.1,1244.2 6784.99,1265.3C6769.17,1281.13 6752.46,1288.16 6730.48,1288.16C6658.39,1288.16 6616.18,1237.17 6584.53,1111.44C6568.7,1049.89 6566.07,1021.76 6570.46,936.473C6573.1,876.686 6581.01,819.536 6588.93,796.676C6596.84,775.575 6602.99,753.594 6602.99,748.319C6602.12,736.889 6525.62,699.082 6502.76,699.082C6454.41,699.082 6413.96,750.957 6391.1,841.517L6381.43,883.72L6425.39,932.077C6539.69,1056.93 6590.69,1214.31 6533.54,1265.3C6510.68,1285.53 6463.2,1290.8 6429.79,1275.86ZM6483.42,1212.55C6491.33,1209.03 6497.49,1196.73 6497.49,1183.54C6497.49,1151.01 6452.65,1062.2 6414.84,1019.12L6384.07,984.831L6384.07,1024.4C6383.19,1094.73 6405.17,1166.83 6435.06,1193.21C6465.84,1220.46 6464.08,1219.59 6483.42,1212.55ZM6743.67,1184.41C6743.67,1165.95 6734,1130.78 6721.69,1106.16C6696.19,1055.17 6642.56,990.986 6633.77,999.778C6626.73,1006.81 6652.23,1142.21 6666.3,1168.59C6683.01,1201.12 6702.35,1217.83 6723.45,1217.83C6741.03,1217.83 6743.67,1213.43 6743.67,1184.41Z" style="fill:rgb(35,35,35);fill-rule:nonzero;"/>
                </g>
                <g transform="matrix(1.30265,0,0,1.30265,-2324.76,139.417)">
                    <path d="M6048.2,977.797C5990.17,939.111 5952.37,853.826 5952.37,763.266C5952.37,648.087 6023.59,595.333 6105.35,650.725L6138.76,672.705L6165.14,650.725C6196.79,624.348 6232.84,622.589 6283.84,645.449C6340.11,670.947 6358.57,725.459 6311.09,725.459C6287.35,725.459 6239.87,696.444 6248.67,687.652C6251.3,684.135 6246.03,681.498 6235.48,681.498C6224.93,681.498 6217.01,684.135 6217.89,688.531C6218.77,692.048 6212.62,705.237 6203.83,718.425C6189.76,740.406 6188.88,750.077 6199.43,855.585C6204.7,918.889 6207.34,975.159 6204.7,982.193C6201.19,991.865 6183.6,995.382 6138.76,996.261C6088.65,997.14 6071.94,993.623 6048.2,977.797ZM6135.25,911.855C6137.01,900.425 6131.73,859.101 6123.82,819.536C6112.39,760.628 6105.35,743.043 6083.37,723.7C6052.6,694.686 6035.89,692.928 6022.7,715.787C6009.52,741.285 6012.15,769.42 6031.5,833.604C6057.87,917.13 6127.33,969.884 6135.25,911.855Z" style="fill:rgb(35,35,35);fill-rule:nonzero;"/>
                </g>
            </g>
        </g>
    </g>
</svg>
