<?xml version="1.0" encoding="UTF-8" standalone="no"?>
<!DOCTYPE svg PUBLIC "-//W3C//DTD SVG 1.1//EN" "http://www.w3.org/Graphics/SVG/1.1/DTD/svg11.dtd">
<svg width="100%" height="100%" viewBox="0 0 354 363" version="1.1" xmlns="http://www.w3.org/2000/svg" xmlns:xlink="http://www.w3.org/1999/xlink" xml:space="preserve" xmlns:serif="http://www.serif.com/" style="fill-rule:evenodd;clip-rule:evenodd;stroke-linejoin:round;stroke-miterlimit:2;">
    <g id="Artboard1" transform="matrix(0.691625,0,0,0.927769,70.0915,47.8308)">
        <rect x="-101.343" y="-51.555" width="510.888" height="390.559" style="fill:none;" />
        <clipPath id="_clip1">
            <rect x="-101.343" y="-51.555" width="510.888" height="390.559" />
        </clipPath>
        <g clip-path="url(#_clip1)">
            <g transform="matrix(0.144587,0,0,-0.107785,-72.5483,314.817)">
                <g transform="matrix(14.9498,0,0,-16.4077,-786.744,4184.27)">
                    <rect x="37.263" y="46.989" width="238.211" height="222.547" style="fill:rgb(2,2,2);" />
                </g>
                <g transform="matrix(1,0,0,1,13.0526,6.52632)">
                    <path d="M1015,2936C945,2919 885,2886 831,2835C740,2750 720,2676 720,2423L720,2260L290,2260L290,1645C290,965 291,958 354,788C391,690 431,620 508,518C552,460 561,444 555,422C544,376 488,287 435,231L385,176L460,217C637,311 775,416 910,556C1015,665 1163,862 1149,874C1147,876 1118,874 1085,869C1006,859 790,858 790,868C790,872 819,894 854,918C1003,1019 1187,1203 1279,1341C1302,1375 1320,1405 1320,1409C1320,1413 1287,1413 1248,1409C1116,1395 939,1401 940,1419C941,1422 982,1453 1033,1487C1208,1605 1386,1784 1495,1953C1523,1995 1547,2030 1550,2030C1553,2030 1573,2002 1595,1968C1710,1789 1901,1594 2072,1482C2120,1451 2160,1422 2160,1419C2160,1401 1984,1395 1853,1409C1812,1413 1780,1412 1780,1407C1780,1402 1808,1359 1842,1312C1925,1197 2091,1031 2215,939L2315,865L2209,862C2150,861 2069,863 2029,868C1988,873 1953,876 1951,874C1935,860 2115,627 2226,520C2369,382 2504,284 2660,205L2715,177L2668,228C2611,289 2563,362 2549,411C2538,446 2540,449 2595,521C2695,650 2776,834 2800,986C2808,1037 2814,1702 2810,2208L2810,2260L2380,2260L2380,2423C2380,2670 2366,2728 2284,2819C2235,2874 2148,2923 2072,2939C1995,2955 1082,2952 1015,2936ZM2087,2760C2164,2725 2170,2706 2170,2468L2170,2260L929,2260L932,2479C935,2697 935,2699 960,2725C1010,2780 1006,2779 1545,2779C2017,2780 2047,2778 2087,2760Z" style="fill:white;fill-rule:nonzero;" />
                </g>
            </g>
        </g>
    </g>
</svg>